<?xml version="1.0" encoding="UTF-8"?>
<!DOCTYPE svg PUBLIC "-//W3C//DTD SVG 1.1//EN" "http://www.w3.org/Graphics/SVG/1.1/DTD/svg11.dtd">
<!-- Creator: CorelDRAW (OEM Version) -->
<svg xmlns="http://www.w3.org/2000/svg" xml:space="preserve" width="24px" height="24px" version="1.1" style="shape-rendering:geometricPrecision; text-rendering:geometricPrecision; image-rendering:optimizeQuality; fill-rule:evenodd; clip-rule:evenodd"
viewBox="0 0 0.68 0.69"
 xmlns:xlink="http://www.w3.org/1999/xlink"
 xmlns:xodm="http://www.corel.com/coreldraw/odm/2003">
 <defs>
  <style type="text/css">
   <![CDATA[
    .fil0 {fill:#FEFEFE}
    .fil2 {fill:#ED3237}
    .fil3 {fill:#39ACDE}
    .fil1 {fill:#FEFEFE;fill-rule:nonzero}
   ]]>
  </style>
 </defs>
 <g id="Layer_x0020_1">
  <metadata id="CorelCorpID_0Corel-Layer"/>
  <g id="_2640329036032">
   <path class="fil0" d="M0.15 0.21l0 0.08c0.01,-0.01 0.02,-0.02 0.03,-0.02 0.01,-0.01 0.02,-0.01 0.04,-0.01 0.02,0 0.03,0 0.05,0.01 0.01,0.01 0.02,0.02 0.03,0.04 0.01,0.01 0.01,0.03 0.01,0.05 0,0.02 0,0.04 -0.01,0.05 0,0.01 -0.01,0.03 -0.02,0.04 0,0.01 -0.01,0.01 -0.02,0.02 -0.02,0 -0.03,0.01 -0.04,0.01 -0.01,0 -0.02,0 -0.03,-0.01 0,0 -0.01,0 -0.01,0 -0.01,-0.01 -0.01,-0.01 -0.02,-0.01 0,-0.01 -0.01,-0.01 -0.01,-0.02l0 0.01c0,0.01 0,0.01 -0.01,0.02 0,0 -0.01,0.01 -0.02,0.01 -0.01,0 -0.01,-0.01 -0.02,-0.01 0,-0.01 0,-0.01 0,-0.02l0 -0.24c0,-0.01 0,-0.02 0,-0.03 0.01,0 0.01,0 0.02,0 0.01,0 0.02,0 0.02,0 0.01,0.01 0.01,0.02 0.01,0.03zm0 0.16c0,0.02 0.01,0.04 0.02,0.05 0.01,0.01 0.02,0.02 0.03,0.02 0.02,0 0.03,-0.01 0.04,-0.02 0.01,-0.01 0.01,-0.03 0.01,-0.05 0,-0.02 0,-0.03 0,-0.04 -0.01,-0.01 -0.01,-0.02 -0.02,-0.02 -0.01,-0.01 -0.02,-0.01 -0.03,-0.01 -0.01,0 -0.02,0 -0.02,0.01 -0.01,0 -0.02,0.01 -0.02,0.02 -0.01,0.01 -0.01,0.02 -0.01,0.04z"/>
   <path class="fil1" d="M0.38 0.36c-0.01,0 -0.02,-0.01 -0.03,-0.01 0,-0.01 -0.01,-0.02 -0.01,-0.02 0.05,0.01 0.03,0.01 0.07,-0.02 0.01,-0.01 0.01,-0.01 0.01,-0.01 0,0 0.01,0.01 0.01,0.02 0,0.01 -0.01,0.02 -0.02,0.03 0,0 -0.01,0.01 -0.03,0.01z"/>
   <path class="fil1" d="M0.4 0.4l0 0.15c0,0.02 0,0.02 0,0.03 -0.01,0 -0.02,0.01 -0.02,0.01 -0.01,0 -0.02,-0.01 -0.02,-0.01 -0.01,-0.01 -0.01,-0.01 -0.01,-0.03l0 -0.15c0,-0.01 0,-0.02 0.01,-0.03 0,0 0.01,0 0.02,0 0,0 0.01,0 0.02,0 0,0.01 0,0.02 0,0.03z"/>
   <path class="fil0" d="M0.48 0.25l0.01 0 0 -0.03c0,-0.01 0,-0.02 0,-0.02 0,-0.01 0,-0.01 0,-0.02 0.01,0 0.01,0 0.01,-0.01 0.01,0 0.01,0 0.02,0 0,0 0.01,0 0.01,0.01 0.01,0 0.01,0.01 0.01,0.01 0,0.01 0,0.01 0,0.02l0 0.04 0.02 0c0.01,0 0.02,0 0.02,0 0,0.01 0.01,0.01 0.01,0.02 0,0.01 -0.01,0.01 -0.01,0.01 -0.01,0.01 -0.02,0.01 -0.03,0.01l-0.01 0 0 0.1c0,0.01 0,0.01 0,0.02 0,0 0.01,0.01 0.01,0.01 0,0 0.01,0 0.01,0 0,0 0.01,0 0.01,0 0.01,0 0.01,0 0.02,0 0,0 0.01,0 0.01,0 0,0.01 0,0.01 0,0.02 0,0.01 0,0.01 -0.01,0.02 -0.01,0 -0.02,0 -0.04,0 -0.02,0 -0.03,0 -0.04,0 -0.01,-0.01 -0.01,-0.02 -0.02,-0.03 0,-0.01 0,-0.02 0,-0.04l0 -0.1 -0.01 0c-0.01,0 -0.01,0 -0.02,-0.01 0,0 0,-0.01 0,-0.01 0,-0.01 0,-0.01 0,-0.02 0.01,0 0.01,0 0.02,0z"/>
   <g>
    <path class="fil2" d="M0.37 0c-0.01,0 -0.11,0.04 -0.13,0.04 -0.04,0.02 -0.08,0.03 -0.12,0.05 -0.03,0.01 -0.05,0.02 -0.06,0.04 -0.01,0.02 -0.01,0.04 -0.02,0.05l-0.04 0.22c0,0.03 0,0.05 0.01,0.07 0.01,0.02 0.03,0.03 0.04,0.05l0.06 0.04c0.04,0.03 0.08,0.06 0.11,0.09l0.02 0.02c0.02,0.01 0.05,0.02 0.07,0.01 0.02,0 0.11,-0.03 0.13,-0.04 0.04,-0.01 0.08,-0.03 0.13,-0.04 0.03,-0.01 0.05,-0.03 0.06,-0.06 0.01,-0.01 0.01,-0.03 0.01,-0.04l0.04 -0.22c0.01,-0.03 0.01,-0.04 -0.01,-0.07 -0.01,-0.02 -0.02,-0.03 -0.04,-0.04 -0.01,-0.01 -0.03,-0.03 -0.05,-0.04l-0.06 -0.05c0,0 0,0 -0.01,-0.01l-0.03 -0.02c-0.03,-0.03 -0.06,-0.06 -0.11,-0.05zm0.11 0.25l0.01 0 0 -0.03c0,-0.01 0,-0.02 0,-0.02 0,-0.01 0,-0.01 0,-0.02 0.01,0 0.01,0 0.01,-0.01 0.01,0 0.01,0 0.02,0 0,0 0.01,0 0.01,0.01 0.01,0 0.01,0.01 0.01,0.01 0,0.01 0,0.01 0,0.02l0 0.04 0.02 0c0.01,0 0.02,0 0.02,0 0,0.01 0.01,0.01 0.01,0.02 0,0.01 -0.01,0.01 -0.01,0.01 -0.01,0.01 -0.02,0.01 -0.03,0.01l-0.01 0 0 0.1c0,0.01 0,0.01 0,0.02 0,0 0.01,0.01 0.01,0.01 0,0 0.01,0 0.01,0 0,0 0.01,0 0.01,0 0.01,0 0.01,0 0.02,0 0,0 0.01,0 0.01,0 0,0.01 0,0.01 0,0.02 0,0.01 0,0.01 -0.01,0.02 -0.01,0 -0.02,0 -0.04,0 -0.02,0 -0.03,0 -0.04,0 -0.01,-0.01 -0.01,-0.02 -0.02,-0.03 0,-0.01 0,-0.02 0,-0.04l0 -0.1 -0.01 0c-0.01,0 -0.01,0 -0.02,-0.01 0,0 0,-0.01 0,-0.01 0,-0.01 0,-0.01 0,-0.02 0.01,0 0.01,0 0.02,0zm-0.08 0.15l0 0.15c0,0.02 0,0.02 0,0.03 -0.01,0 -0.02,0.01 -0.02,0.01 -0.01,0 -0.02,-0.01 -0.02,-0.01 -0.01,-0.01 -0.01,-0.01 -0.01,-0.03l0 -0.15c0,-0.01 0,-0.02 0.01,-0.03 0,0 0.01,0 0.02,0 0,0 0.01,0 0.02,0 0,0.01 0,0.02 0,0.03zm-0.02 -0.04c-0.01,0 -0.02,-0.01 -0.03,-0.01 0,-0.01 -0.01,-0.02 -0.01,-0.02 0,0 0,0 0,0 -0.02,-0.01 -0.02,-0.02 -0.02,-0.03l-0.01 0c-0.03,-0.01 0,-0.03 0.02,-0.04 0.03,-0.03 0.02,-0.03 0.07,-0.02 0.01,0.01 0.03,0.01 0.04,0.01 0,0.01 0.01,0.03 0.01,0.03 -0.01,0.01 -0.01,-0.01 -0.02,-0.02l0 0c0,0 -0.01,0.01 -0.01,0.01 0,0.01 0,0.02 0,0.03 0,0 0.01,0.01 0.01,0.02 0,0.01 -0.01,0.02 -0.02,0.03 0,0 -0.01,0.01 -0.03,0.01zm-0.23 -0.15l0 0.08c0.01,-0.01 0.02,-0.02 0.03,-0.02 0.01,-0.01 0.02,-0.01 0.04,-0.01 0.02,0 0.03,0 0.05,0.01 0.01,0.01 0.02,0.02 0.03,0.04 0.01,0.01 0.01,0.03 0.01,0.05 0,0.02 0,0.04 -0.01,0.05 0,0.01 -0.01,0.03 -0.02,0.04 0,0.01 -0.01,0.01 -0.02,0.02 -0.02,0 -0.03,0.01 -0.04,0.01 -0.01,0 -0.02,0 -0.03,-0.01 0,0 -0.01,0 -0.01,0 -0.01,-0.01 -0.01,-0.01 -0.02,-0.01 0,-0.01 -0.01,-0.01 -0.01,-0.02l0 0.01c0,0.01 0,0.01 -0.01,0.02 0,0 -0.01,0.01 -0.02,0.01 -0.01,0 -0.01,-0.01 -0.02,-0.01 0,-0.01 0,-0.01 0,-0.02l0 -0.24c0,-0.01 0,-0.02 0,-0.03 0.01,0 0.01,0 0.02,0 0.01,0 0.02,0 0.02,0 0.01,0.01 0.01,0.02 0.01,0.03zm0 0.16c0,0.02 0.01,0.04 0.02,0.05 0.01,0.01 0.02,0.02 0.03,0.02 0.02,0 0.03,-0.01 0.04,-0.02 0.01,-0.01 0.01,-0.03 0.01,-0.05 0,-0.02 0,-0.03 0,-0.04 -0.01,-0.01 -0.01,-0.02 -0.02,-0.02 -0.01,-0.01 -0.02,-0.01 -0.03,-0.01 -0.01,0 -0.02,0 -0.02,0.01 -0.01,0 -0.02,0.01 -0.02,0.02 -0.01,0.01 -0.01,0.02 -0.01,0.04z"/>
    <path class="fil3" d="M0.32 0.3c0,0.01 0,0.02 0.02,0.03 0.05,0.01 0.03,0.01 0.07,-0.02 0.02,-0.01 0.01,-0.02 0.01,-0.04 0,0 0.01,-0.01 0.01,-0.01l0 0c0.01,0.01 0.01,0.03 0.02,0.02 0,0 -0.01,-0.02 -0.01,-0.03 -0.01,0 -0.03,0 -0.04,-0.01 -0.05,-0.01 -0.04,-0.01 -0.07,0.02 -0.02,0.01 -0.05,0.03 -0.02,0.04l0.01 0z"/>
   </g>
  </g>
 </g>
</svg>
